<svg width="96" height="96" viewBox="0 0 96 96" fill="none" xmlns="http://www.w3.org/2000/svg">
<g clip-path="url(#clip0_398_82068)">
<rect width="96" height="96" rx="27.4286" fill="#252525"/>
<circle cx="48.8555" cy="48.8574" r="27.4286" fill="#E00000" stroke="white" stroke-width="5.14286"/>
<path fill-rule="evenodd" clip-rule="evenodd" d="M45.4286 40.285C45.4286 38.3915 46.9636 36.8564 48.8571 36.8564C50.7507 36.8564 52.2857 38.3915 52.2857 40.285V50.5707C52.2857 52.4643 50.7507 53.9993 48.8571 53.9993C46.9636 53.9993 45.4286 52.4643 45.4286 50.5707V40.285ZM47.9994 57.375C44.6172 56.9529 42 54.0676 42 50.5709V46.2844C42 45.811 42.3838 45.4272 42.8571 45.4272C43.3305 45.4272 43.7143 45.811 43.7143 46.2844V50.5703C43.7143 53.4106 46.0168 55.7132 48.8571 55.7132C51.6975 55.7132 54 53.4106 54 50.5703V46.2844C54 45.811 54.3838 45.4272 54.8571 45.4272C55.3305 45.4272 55.7143 45.811 55.7143 46.2844V50.5709C55.7143 54.0679 53.0966 56.9535 49.7137 57.3751V59.1426H53.1423C53.6157 59.1426 53.9994 59.5263 53.9994 59.9997C53.9994 60.4731 53.6157 60.8569 53.1423 60.8569L48.8566 60.8569H44.5709C44.0975 60.8569 43.7137 60.4731 43.7137 59.9997C43.7137 59.5263 44.0975 59.1426 44.5709 59.1426H47.9994V57.375Z" fill="white"/>
</g>
<defs>
<clipPath id="clip0_398_82068">
<rect width="96" height="96" rx="27.4286" fill="white"/>
</clipPath>
</defs>
</svg>
