<svg width="124" height="41" viewBox="0 0 124 41" fill="black" xmlns="http://www.w3.org/2000/svg">
<path fill-rule="evenodd" clip-rule="evenodd" d="M0 20.4955C0 31.8283 9.27019 40.5 20.7811 40.5V40.4909C32.2469 40.4909 41.5622 31.8193 41.5622 20.4955C41.5622 9.17164 32.2921 0.5 20.7811 0.5C9.27019 0.5 0 9.16259 0 20.4955ZM7.54445 20.4955C7.54445 13.0458 13.3993 7.02636 20.7811 7.02636C28.2081 7.02636 34.0178 12.9915 34.0178 20.4955C34.0178 27.9994 28.1629 33.9646 20.7811 33.9646C13.3993 33.9646 7.54445 27.9451 7.54445 20.4955Z" />
<path d="M51.9347 11.154H44.7155V39.631H51.9437V23.7541C52.1967 20.3416 54.9977 17.6351 58.4582 17.6351H60.2381V10.285H59.5243C55.7476 10.285 53.5611 12.6385 52.0341 15.2364H51.9347V11.154Z" />
<path d="M81.0192 39.631H74.0892L62.6324 10.0949H70.1227L77.5587 30.2986H77.6581L84.9947 10.0949H92.4759L81.0192 39.631Z" />
<path fill-rule="evenodd" clip-rule="evenodd" d="M116.672 34.8879H116.772V39.631H124V10.0949H116.772V14.3765H116.672C114.63 11.6247 111.477 9.22597 106.842 9.22597C98.2404 9.22597 91.211 15.8609 91.211 24.8404C91.211 33.8198 98.2314 40.5 106.842 40.5C111.784 40.5 115.046 37.6396 116.672 34.8879ZM98.7374 24.8313C98.7374 19.889 102.767 15.7523 107.755 15.7523C112.796 15.7523 116.772 19.8347 116.772 24.8313C116.772 29.8279 112.751 33.9646 107.755 33.9646C102.758 33.9646 98.7374 29.7736 98.7374 24.8313Z" />
</svg>
