<svg xmlns="http://www.w3.org/2000/svg" width="18" height="19" viewBox="0 0 18 19" fill="#65558F">
  <path d="M8.11268 13.0067L12.8873 8.47805L11.6831 7.33588L8.11268 10.7223L6.3169 9.01908L5.11268 10.1613L8.11268 13.0067ZM9 17.375C7.94366 17.375 6.95423 17.1846 6.03169 16.8039C5.10916 16.4232 4.30634 15.9089 3.62324 15.261C2.94014 14.6131 2.39789 13.8516 1.99648 12.9766C1.59507 12.1016 1.39437 11.1632 1.39437 10.1613C1.39437 9.15935 1.59507 8.2209 1.99648 7.3459C2.39789 6.4709 2.94014 5.70945 3.62324 5.06155C4.30634 4.41364 5.10916 3.89933 6.03169 3.51861C6.95423 3.13788 7.94366 2.94752 9 2.94752C10.0563 2.94752 11.0458 3.13788 11.9683 3.51861C12.8908 3.89933 13.6937 4.41364 14.3768 5.06155C15.0599 5.70945 15.6021 6.4709 16.0035 7.3459C16.4049 8.2209 16.6056 9.15935 16.6056 10.1613C16.6056 11.1632 16.4049 12.1016 16.0035 12.9766C15.6021 13.8516 15.0599 14.6131 14.3768 15.261C13.6937 15.9089 12.8908 16.4232 11.9683 16.8039C11.0458 17.1846 10.0563 17.375 9 17.375ZM3.59155 1.625L4.77465 2.74714L1.1831 6.15363L0 5.03149L3.59155 1.625ZM14.4085 1.625L18 5.03149L16.8169 6.15363L13.2254 2.74714L14.4085 1.625Z"/>
</svg>