<svg width="24" height="24" viewBox="0 0 24 24" fill="none" xmlns="http://www.w3.org/2000/svg">
<path d="M1.5 5C1.5 3.89543 2.39543 3 3.5 3H9C9.82843 3 10.5 3.67157 10.5 4.5V4.5C10.5 5.32843 11.1716 6 12 6H20C20.8284 6 21.5 6.67157 21.5 7.5V8.5208C21.5 8.78545 21.7145 9 21.9792 9V9C22.2596 9 22.48 9.23961 22.4568 9.519L21.6528 19.1661C21.5664 20.2027 20.6999 21 19.6597 21H3.5C2.39543 21 1.5 20.1046 1.5 19V5Z" stroke="black" stroke-width="1.5"/>
<path d="M1.5 11H9.5C10.0523 11 10.5 10.5523 10.5 10V10C10.5 9.44772 10.9477 9 11.5 9H21.5" stroke="black" stroke-width="1.5" stroke-linecap="round"/>
</svg>
