<svg width="24" height="24" viewBox="0 0 24 24" fill="none" xmlns="http://www.w3.org/2000/svg">
<path d="M3 1.25C2.0335 1.25 1.25 2.0335 1.25 3H2.75C2.75 2.86193 2.86193 2.75 3 2.75V1.25ZM5 1.25H3V2.75H5V1.25ZM6.75 3C6.75 2.0335 5.9665 1.25 5 1.25V2.75C5.13807 2.75 5.25 2.86193 5.25 3H6.75ZM6.75 21V3H5.25V21H6.75ZM5 22.75C5.9665 22.75 6.75 21.9665 6.75 21H5.25C5.25 21.1381 5.13807 21.25 5 21.25V22.75ZM3 22.75H5V21.25H3V22.75ZM1.25 21C1.25 21.9665 2.0335 22.75 3 22.75V21.25C2.86193 21.25 2.75 21.1381 2.75 21H1.25ZM1.25 3V21H2.75V3H1.25ZM11 1.25C10.0335 1.25 9.25 2.0335 9.25 3H10.75C10.75 2.86193 10.8619 2.75 11 2.75V1.25ZM13 1.25H11V2.75H13V1.25ZM14.75 3C14.75 2.0335 13.9665 1.25 13 1.25V2.75C13.1381 2.75 13.25 2.86193 13.25 3H14.75ZM14.75 21V3H13.25V21H14.75ZM13 22.75C13.9665 22.75 14.75 21.9665 14.75 21H13.25C13.25 21.1381 13.1381 21.25 13 21.25V22.75ZM11 22.75H13V21.25H11V22.75ZM9.25 21C9.25 21.9665 10.0335 22.75 11 22.75V21.25C10.8619 21.25 10.75 21.1381 10.75 21H9.25ZM9.25 3V21H10.75V3H9.25ZM18.75 3C18.75 2.86193 18.8619 2.75 19 2.75V1.25C18.0335 1.25 17.25 2.0335 17.25 3H18.75ZM18.75 21V3H17.25V21H18.75ZM19 21.25C18.8619 21.25 18.75 21.1381 18.75 21H17.25C17.25 21.9665 18.0335 22.75 19 22.75V21.25ZM21 21.25H19V22.75H21V21.25ZM21.25 21C21.25 21.1381 21.1381 21.25 21 21.25V22.75C21.9665 22.75 22.75 21.9665 22.75 21H21.25ZM21.25 3V21H22.75V3H21.25ZM21 2.75C21.1381 2.75 21.25 2.86193 21.25 3H22.75C22.75 2.0335 21.9665 1.25 21 1.25V2.75ZM19 2.75H21V1.25H19V2.75Z" fill="black"/>
</svg>
