<svg width="19" height="18" viewBox="0 0 19 18" fill="none" xmlns="http://www.w3.org/2000/svg">
<path d="M7.2375 12.75L9.9375 10.05L12.6375 12.75L13.6875 11.7L10.9875 9L13.6875 6.3L12.6375 5.25L9.9375 7.95L7.2375 5.25L6.1875 6.3L8.8875 9L6.1875 11.7L7.2375 12.75ZM9.9375 16.5C8.9 16.5 7.925 16.3031 7.0125 15.9094C6.1 15.5156 5.30625 14.9813 4.63125 14.3063C3.95625 13.6313 3.42188 12.8375 3.02813 11.925C2.63437 11.0125 2.4375 10.0375 2.4375 9C2.4375 7.9625 2.63437 6.9875 3.02813 6.075C3.42188 5.1625 3.95625 4.36875 4.63125 3.69375C5.30625 3.01875 6.1 2.48438 7.0125 2.09063C7.925 1.69687 8.9 1.5 9.9375 1.5C10.975 1.5 11.95 1.69687 12.8625 2.09063C13.775 2.48438 14.5688 3.01875 15.2438 3.69375C15.9188 4.36875 16.4531 5.1625 16.8469 6.075C17.2406 6.9875 17.4375 7.9625 17.4375 9C17.4375 10.0375 17.2406 11.0125 16.8469 11.925C16.4531 12.8375 15.9188 13.6313 15.2438 14.3063C14.5688 14.9813 13.775 15.5156 12.8625 15.9094C11.95 16.3031 10.975 16.5 9.9375 16.5ZM9.9375 15C11.6125 15 13.0313 14.4188 14.1938 13.2563C15.3563 12.0938 15.9375 10.675 15.9375 9C15.9375 7.325 15.3563 5.90625 14.1938 4.74375C13.0313 3.58125 11.6125 3 9.9375 3C8.2625 3 6.84375 3.58125 5.68125 4.74375C4.51875 5.90625 3.9375 7.325 3.9375 9C3.9375 10.675 4.51875 12.0938 5.68125 13.2563C6.84375 14.4188 8.2625 15 9.9375 15Z" fill="#B3261E"/>
</svg>
