<svg width="23" height="20" viewBox="0 0 23 20" fill="none" xmlns="http://www.w3.org/2000/svg">
<path d="M11.5 0.101562C15.7679 0.101562 19.3846 2.88024 20.6455 6.72656H21.5C22.0523 6.72656 22.5 7.17428 22.5 7.72656V12.7266C22.5 13.2788 22.0523 13.7266 21.5 13.7266H19.5C18.9477 13.7266 18.5 13.2788 18.5 12.7266V7.72656C18.5 7.23393 18.8563 6.82489 19.3252 6.74219C18.1226 3.59084 15.0738 1.35156 11.5 1.35156C7.92608 1.35156 4.87631 3.59067 3.67383 6.74219C4.1432 6.8245 4.5 7.2336 4.5 7.72656V12.7266C4.5 13.0739 4.32253 13.3793 4.05371 13.5586C4.99379 15.3816 6.58231 16.814 8.51562 17.5518C8.59833 17.0828 9.00737 16.7266 9.5 16.7266H11.5C12.0523 16.7266 12.5 17.1743 12.5 17.7266V18.7266C12.5 19.2788 12.0523 19.7266 11.5 19.7266H9.5C8.99852 19.7266 8.58388 19.3573 8.51172 18.876C5.94665 18.0387 3.85727 16.1544 2.74609 13.7266H1.5C0.947715 13.7266 0.5 13.2788 0.5 12.7266V7.72656C0.5 7.17428 0.947715 6.72656 1.5 6.72656H2.35449C3.61543 2.88024 7.23207 0.101562 11.5 0.101562Z" fill="white"/>
</svg>
