<svg width="24" height="24" viewBox="0 0 24 24" fill="none" xmlns="http://www.w3.org/2000/svg">
<path d="M19.7146 9.45073L19.1786 9.97539L19.7146 9.45073ZM11.2854 2.30044L10.7495 1.77577L11.2854 2.30044ZM4.28542 9.45073L3.74949 8.92606L4.28542 9.45073ZM4.82136 9.97539L11.8214 2.82511L10.7495 1.77577L3.74949 8.92606L4.82136 9.97539ZM4.75 20.9999V10.1503H3.25V20.9999H4.75ZM8 21.2499H5V22.7499H8V21.2499ZM9.75 20.9999V15.9999H8.25V20.9999H9.75ZM10 15.7499H14V14.2499H10V15.7499ZM14.25 15.9999V20.9999H15.75V15.9999H14.25ZM19 21.2499H16V22.7499H19V21.2499ZM19.25 10.1503V20.9999H20.75V10.1503H19.25ZM12.1786 2.82511L19.1786 9.97539L20.2505 8.92606L13.2505 1.77577L12.1786 2.82511ZM20.75 10.1503C20.75 9.69259 20.5707 9.25311 20.2505 8.92606L19.1786 9.97539C19.2244 10.0221 19.25 10.0849 19.25 10.1503H20.75ZM19 22.7499C19.9665 22.7499 20.75 21.9664 20.75 20.9999H19.25C19.25 21.138 19.1381 21.2499 19 21.2499V22.7499ZM14.25 20.9999C14.25 21.9664 15.0335 22.7499 16 22.7499V21.2499C15.8619 21.2499 15.75 21.138 15.75 20.9999H14.25ZM14 15.7499C14.1381 15.7499 14.25 15.8618 14.25 15.9999H15.75C15.75 15.0334 14.9665 14.2499 14 14.2499V15.7499ZM9.75 15.9999C9.75 15.8618 9.86193 15.7499 10 15.7499V14.2499C9.0335 14.2499 8.25 15.0334 8.25 15.9999H9.75ZM8 22.7499C8.9665 22.7499 9.75 21.9664 9.75 20.9999H8.25C8.25 21.138 8.13807 21.2499 8 21.2499V22.7499ZM3.25 20.9999C3.25 21.9664 4.0335 22.7499 5 22.7499V21.2499C4.86193 21.2499 4.75 21.138 4.75 20.9999H3.25ZM11.8214 2.82511C11.9194 2.72496 12.0806 2.72496 12.1786 2.82511L13.2505 1.77577C12.5642 1.07474 11.4358 1.07474 10.7495 1.77577L11.8214 2.82511ZM3.74949 8.92606C3.42931 9.25311 3.25 9.69259 3.25 10.1503H4.75C4.75 10.0849 4.77562 10.0221 4.82136 9.97539L3.74949 8.92606Z" fill="black"/>
</svg>
