<svg width="26" height="26" viewBox="0 0 26 26" fill="none" xmlns="http://www.w3.org/2000/svg">
<mask id="path-1-inside-1_1_6" fill="white">
<path d="M25.6004 13.0004C25.6004 10.0249 24.5474 7.14548 22.6279 4.87197C20.7084 2.59846 18.0462 1.0776 15.1129 0.578743C12.1796 0.079881 9.16431 0.635204 6.60116 2.14637C4.03801 3.65753 2.09235 6.02701 1.10875 8.83519C0.125149 11.6434 0.16708 14.709 1.22712 17.4893C2.28715 20.2695 4.29689 22.5849 6.90041 24.0254C9.50393 25.4659 12.5332 25.9385 15.4518 25.3596C18.3704 24.7807 20.99 23.1876 22.8466 20.8625L19.9327 18.5358C18.6256 20.1728 16.7812 21.2945 14.7264 21.7021C12.6715 22.1096 10.5387 21.7769 8.70563 20.7627C6.87259 19.7485 5.4576 18.1183 4.71127 16.1608C3.96494 14.2034 3.93542 12.045 4.62794 10.0678C5.32045 8.0907 6.69032 6.42243 8.49493 5.35848C10.2996 4.29453 12.4225 3.90355 14.4877 4.25478C16.553 4.60601 18.4273 5.67678 19.7788 7.27748C21.1302 8.87817 21.8716 10.9055 21.8716 13.0004L25.6004 13.0004Z"/>
</mask>
<path d="M25.6004 13.0004C25.6004 10.0249 24.5474 7.14548 22.6279 4.87197C20.7084 2.59846 18.0462 1.0776 15.1129 0.578743C12.1796 0.079881 9.16431 0.635204 6.60116 2.14637C4.03801 3.65753 2.09235 6.02701 1.10875 8.83519C0.125149 11.6434 0.16708 14.709 1.22712 17.4893C2.28715 20.2695 4.29689 22.5849 6.90041 24.0254C9.50393 25.4659 12.5332 25.9385 15.4518 25.3596C18.3704 24.7807 20.99 23.1876 22.8466 20.8625L19.9327 18.5358C18.6256 20.1728 16.7812 21.2945 14.7264 21.7021C12.6715 22.1096 10.5387 21.7769 8.70563 20.7627C6.87259 19.7485 5.4576 18.1183 4.71127 16.1608C3.96494 14.2034 3.93542 12.045 4.62794 10.0678C5.32045 8.0907 6.69032 6.42243 8.49493 5.35848C10.2996 4.29453 12.4225 3.90355 14.4877 4.25478C16.553 4.60601 18.4273 5.67678 19.7788 7.27748C21.1302 8.87817 21.8716 10.9055 21.8716 13.0004L25.6004 13.0004Z" stroke="url(#paint0_linear_1_6)" stroke-width="6" stroke-linejoin="round" mask="url(#path-1-inside-1_1_6)"/>
<circle cx="23.7416" cy="13.1225" r="1.8725" fill="white"/>
<defs>
<linearGradient id="paint0_linear_1_6" x1="21.4004" y1="-2.74961" x2="12.3004" y2="16.8504" gradientUnits="userSpaceOnUse">
<stop stop-color="#0047FF"/>
<stop offset="1" stop-color="#00B3FF"/>
</linearGradient>
</defs>
</svg>
