<svg width="17" height="17" viewBox="0 0 17 17" fill="none" xmlns="http://www.w3.org/2000/svg">
<path fill-rule="evenodd" clip-rule="evenodd" d="M6.5 3.5C6.5 2.39543 7.39543 1.5 8.5 1.5C9.60457 1.5 10.5 2.39543 10.5 3.5V9.5C10.5 10.6046 9.60457 11.5 8.5 11.5C7.39543 11.5 6.5 10.6046 6.5 9.5V3.5ZM8 13.469C6.02684 13.223 4.5 11.5398 4.5 9.49999V7C4.5 6.72386 4.72386 6.5 5 6.5C5.27614 6.5 5.5 6.72386 5.5 7V9.49999C5.5 11.1568 6.84315 12.5 8.5 12.5C10.1569 12.5 11.5 11.1568 11.5 9.49999V7C11.5 6.72386 11.7239 6.5 12 6.5C12.2761 6.5 12.5 6.72386 12.5 7V9.49999C12.5 11.5398 10.9732 13.223 9 13.469V14.5H11C11.2761 14.5 11.5 14.7239 11.5 15C11.5 15.2761 11.2761 15.5 11 15.5H8.5H6C5.72386 15.5 5.5 15.2761 5.5 15C5.5 14.7239 5.72386 14.5 6 14.5H8V13.469Z" fill="white"/>
</svg>
