<svg width="20" height="20" viewBox="0 0 20 20" fill="none" xmlns="http://www.w3.org/2000/svg">
<path d="M9.99679 17.108C10.0308 17.1608 10.0685 17.2136 10.11 17.2627C9.96283 17.2702 9.81188 17.2627 9.66094 17.2438C8.51377 17.0891 7.55905 16.1759 7.3666 15.0287C7.04585 13.1381 8.66849 11.523 10.5553 11.874C10.9326 11.9419 11.2836 12.0966 11.5892 12.308L9.93264 15.6249C9.69113 16.1004 9.71754 16.6551 9.99679 17.108ZM13.7477 8.31173C13.5704 8.44757 13.427 8.62116 13.3251 8.82871L12.5364 10.4061C10.4609 9.13437 7.77037 9.55701 6.17037 11.6287C5.81943 12.0853 5.38547 12.3381 4.80434 12.1947C3.93641 11.9872 3.61943 10.991 4.18924 10.2287C6.00434 7.7872 8.92509 6.90795 11.5553 7.47399C12.3628 7.64757 13.0874 7.92682 13.7477 8.31173Z" fill="white"/>
<path d="M18.5419 8.49945C18.2333 8.70322 17.8755 8.73416 17.4929 8.56737C17.2891 8.48096 17.1042 8.32058 16.9495 8.15982C14.4385 5.56246 11.2853 4.59982 7.52156 5.45152C5.80006 5.8402 4.34383 6.88284 3.12798 8.16624C2.47402 8.85756 1.57326 8.83265 1.11666 8.09228C1.11666 8.08624 1.11062 8.08624 1.11062 8.08624C0.882319 7.70963 0.894394 7.21605 1.1227 6.84586C1.56081 6.13643 2.22722 5.64247 2.88119 5.14888C7.68798 1.47756 14.5001 2.04511 18.6404 6.45077C18.6774 6.48813 18.7084 6.52511 18.7393 6.56209C19.2084 7.16058 19.171 8.07379 18.5419 8.49945Z" fill="white"/>
<path d="M18.9543 15.878L15.5536 9.08177C15.1988 8.37347 14.1875 8.37385 13.8336 9.08253L10.4385 15.8788C10.1192 16.518 10.5841 17.2697 11.2988 17.2697H18.0947C18.8094 17.2697 19.2743 16.5172 18.9543 15.878ZM14.2592 11.6123C14.2592 11.5633 14.2747 11.5244 14.306 11.4954C14.3368 11.4666 14.3776 11.4512 14.4196 11.4523H14.9736C15.0181 11.4523 15.0558 11.4674 15.0871 11.4988C15.1023 11.5135 15.1143 11.5312 15.1223 11.5507C15.1304 11.5702 15.1343 11.5912 15.1339 11.6123V14.664C15.1343 14.6852 15.1304 14.7061 15.1223 14.7257C15.1143 14.7452 15.1023 14.7629 15.0871 14.7776C15.0724 14.7927 15.0548 14.8046 15.0353 14.8126C15.0159 14.8207 14.995 14.8247 14.9739 14.8244H14.4196C14.3985 14.8248 14.3775 14.8208 14.358 14.8128C14.3384 14.8047 14.3208 14.7928 14.306 14.7776C14.2909 14.7629 14.279 14.7453 14.2709 14.7258C14.2629 14.7064 14.2589 14.6855 14.2592 14.6644V11.6123ZM15.1743 15.9663C15.1746 15.9874 15.1706 16.0083 15.1626 16.0277C15.1545 16.0472 15.1426 16.0648 15.1275 16.0795C15.1117 16.0952 15.0928 16.1075 15.072 16.1156C15.0513 16.1237 15.0291 16.1275 15.0068 16.1267H14.3792C14.3582 16.127 14.3373 16.123 14.3178 16.115C14.2983 16.1069 14.2807 16.095 14.266 16.0799C14.2509 16.0652 14.2389 16.0475 14.2309 16.0279C14.2228 16.0084 14.2189 15.9874 14.2192 15.9663V15.3316C14.2192 15.2825 14.2347 15.244 14.2656 15.2146C14.2965 15.186 14.3372 15.1706 14.3792 15.1716H15.0071C15.0562 15.1716 15.0962 15.1871 15.1275 15.2184C15.1426 15.2331 15.1546 15.2507 15.1626 15.2702C15.1707 15.2896 15.1746 15.3105 15.1743 15.3316V15.9663Z" fill="white"/>
</svg>
