<svg width="32" height="32" viewBox="0 0 32 32" fill="none" xmlns="http://www.w3.org/2000/svg">
<path d="M15.9933 27.3743C16.0476 27.4588 16.108 27.5433 16.1744 27.6218C15.939 27.6339 15.6975 27.6218 15.4559 27.5916C13.6205 27.3441 12.0929 25.883 11.785 24.0475C11.2718 21.0226 13.868 18.4384 16.8869 18.9999C17.4907 19.1086 18.0522 19.3562 18.5412 19.6943L15.8907 25.0015C15.5042 25.7622 15.5465 26.6498 15.9933 27.3743ZM21.9948 13.3003C21.711 13.5177 21.4816 13.7954 21.3186 14.1275L20.0567 16.6513C16.7359 14.6166 12.431 15.2928 9.87104 18.6075C9.30953 19.3381 8.61519 19.7426 7.68538 19.5132C6.2967 19.1811 5.78953 17.5871 6.70123 16.3675C9.60538 12.4611 14.2786 11.0543 18.4869 11.9599C19.779 12.2377 20.9382 12.6845 21.9948 13.3003Z" fill="#B2B2B2"/>
<path d="M29.6663 13.6015C29.1724 13.9275 28.6001 13.977 27.9878 13.7101C27.6618 13.5719 27.3659 13.3153 27.1184 13.0581C23.1009 8.90229 18.0558 7.36206 12.0337 8.72478C9.27931 9.34667 6.94934 11.0149 5.00399 13.0683C3.95765 14.1744 2.51644 14.1346 1.78587 12.95C1.78587 12.9403 1.77621 12.9403 1.77621 12.9403C1.41093 12.3378 1.43025 11.548 1.79553 10.9557C2.49651 9.82063 3.56278 9.03029 4.60912 8.24055C12.3 2.36644 23.1993 3.27451 29.8239 10.3236C29.8831 10.3833 29.9326 10.4425 29.9821 10.5017C30.7326 11.4593 30.6728 12.9204 29.6663 13.6015Z" fill="#B2B2B2"/>
<path d="M30.3246 25.4032L24.8834 14.5293C24.3158 13.396 22.6977 13.3966 22.1314 14.5305L16.6992 25.4044C16.1884 26.4272 16.9323 27.63 18.0758 27.63H28.9492C30.0927 27.63 30.8366 26.426 30.3246 25.4032ZM22.8124 18.5782C22.8124 18.4997 22.8372 18.4375 22.8873 18.391C22.9365 18.3451 23.0017 18.3203 23.069 18.3222H23.9554C24.0266 18.3222 24.087 18.3463 24.1371 18.3964C24.1614 18.42 24.1805 18.4483 24.1934 18.4795C24.2063 18.5108 24.2126 18.5444 24.212 18.5782V23.4609C24.2126 23.4947 24.2062 23.5283 24.1933 23.5595C24.1805 23.5908 24.1613 23.6191 24.1371 23.6426C24.1135 23.6667 24.0853 23.6858 24.0542 23.6987C24.0231 23.7115 23.9897 23.7179 23.956 23.7175H23.069C23.0352 23.7181 23.0017 23.7118 22.9704 23.6989C22.9391 23.686 22.9109 23.6669 22.8873 23.6426C22.8631 23.6191 22.844 23.5909 22.8312 23.5598C22.8183 23.5286 22.8119 23.4952 22.8124 23.4615V18.5782ZM24.2766 25.5445C24.277 25.5782 24.2706 25.6116 24.2578 25.6428C24.2449 25.6739 24.2258 25.7021 24.2017 25.7256C24.1764 25.7508 24.1462 25.7704 24.1129 25.7834C24.0797 25.7964 24.0441 25.8024 24.0085 25.8011H23.0044C22.9707 25.8016 22.9373 25.7953 22.9061 25.7824C22.875 25.7695 22.8468 25.7504 22.8233 25.7263C22.7991 25.7027 22.7799 25.6744 22.767 25.6431C22.7542 25.6119 22.7478 25.5783 22.7484 25.5445V24.529C22.7484 24.4505 22.7732 24.3889 22.8227 24.3418C22.872 24.2961 22.9372 24.2714 23.0044 24.273H24.0091C24.0876 24.273 24.1516 24.2977 24.2017 24.3478C24.2259 24.3713 24.2449 24.3995 24.2578 24.4307C24.2707 24.4618 24.2771 24.4953 24.2766 24.529V25.5445Z" fill="#E00000"/>
</svg>
