<svg width="40" height="40" viewBox="0 0 40 40" fill="none" xmlns="http://www.w3.org/2000/svg">
<rect width="40" height="40" rx="20" fill="#007A02"/>
<path d="M25.4467 20.1818C25.4467 21.4508 25.2062 22.5303 24.7251 23.4205C24.2479 24.3106 23.5964 24.9905 22.7706 25.4602C21.9486 25.9261 21.0244 26.1591 19.9979 26.1591C18.9638 26.1591 18.0357 25.9242 17.2138 25.4545C16.3918 24.9848 15.7422 24.3049 15.2649 23.4148C14.7876 22.5246 14.549 21.447 14.549 20.1818C14.549 18.9129 14.7876 17.8333 15.2649 16.9432C15.7422 16.053 16.3918 15.375 17.2138 14.9091C18.0357 14.4394 18.9638 14.2045 19.9979 14.2045C21.0244 14.2045 21.9486 14.4394 22.7706 14.9091C23.5964 15.375 24.2479 16.053 24.7251 16.9432C25.2062 17.8333 25.4467 18.9129 25.4467 20.1818ZM22.9524 20.1818C22.9524 19.3598 22.8293 18.6667 22.5831 18.1023C22.3407 17.5379 21.9979 17.1098 21.5547 16.8182C21.1115 16.5265 20.5926 16.3807 19.9979 16.3807C19.4032 16.3807 18.8842 16.5265 18.4411 16.8182C17.9979 17.1098 17.6532 17.5379 17.407 18.1023C17.1645 18.6667 17.0433 19.3598 17.0433 20.1818C17.0433 21.0038 17.1645 21.697 17.407 22.2614C17.6532 22.8258 17.9979 23.2538 18.4411 23.5455C18.8842 23.8371 19.4032 23.983 19.9979 23.983C20.5926 23.983 21.1115 23.8371 21.5547 23.5455C21.9979 23.2538 22.3407 22.8258 22.5831 22.2614C22.8293 21.697 22.9524 21.0038 22.9524 20.1818Z" fill="white"/>
</svg>
