<svg width="24" height="25" viewBox="0 0 24 25" fill="none" xmlns="http://www.w3.org/2000/svg">
<path d="M8.4 3.54688H4.6C4.03995 3.54688 3.75992 3.54688 3.54601 3.65587C3.35785 3.75174 3.20487 3.90472 3.10899 4.09288C3 4.3068 3 4.58682 3 5.14687V8.94688C3 9.50693 3 9.78695 3.10899 10.0009C3.20487 10.189 3.35785 10.342 3.54601 10.4379C3.75992 10.5469 4.03995 10.5469 4.6 10.5469H8.4C8.96005 10.5469 9.24008 10.5469 9.45399 10.4379C9.64215 10.342 9.79513 10.189 9.89101 10.0009C10 9.78695 10 9.50693 10 8.94688V5.14688C10 4.58682 10 4.3068 9.89101 4.09288C9.79513 3.90472 9.64215 3.75174 9.45399 3.65587C9.24008 3.54688 8.96005 3.54688 8.4 3.54688Z" stroke="black" stroke-width="1.5" stroke-linecap="round" stroke-linejoin="round"/>
<path d="M19.4 3.54688H15.6C15.0399 3.54688 14.7599 3.54688 14.546 3.65587C14.3578 3.75174 14.2049 3.90472 14.109 4.09288C14 4.3068 14 4.58682 14 5.14687V8.94688C14 9.50693 14 9.78695 14.109 10.0009C14.2049 10.189 14.3578 10.342 14.546 10.4379C14.7599 10.5469 15.0399 10.5469 15.6 10.5469H19.4C19.9601 10.5469 20.2401 10.5469 20.454 10.4379C20.6422 10.342 20.7951 10.189 20.891 10.0009C21 9.78695 21 9.50693 21 8.94688V5.14688C21 4.58682 21 4.3068 20.891 4.09288C20.7951 3.90472 20.6422 3.75174 20.454 3.65587C20.2401 3.54688 19.9601 3.54688 19.4 3.54688Z" stroke="black" stroke-width="1.5" stroke-linecap="round" stroke-linejoin="round"/>
<path d="M19.4 14.5469H15.6C15.0399 14.5469 14.7599 14.5469 14.546 14.6559C14.3578 14.7517 14.2049 14.9047 14.109 15.0929C14 15.3068 14 15.5868 14 16.1469V19.9469C14 20.5069 14 20.787 14.109 21.0009C14.2049 21.189 14.3578 21.342 14.546 21.4379C14.7599 21.5469 15.0399 21.5469 15.6 21.5469H19.4C19.9601 21.5469 20.2401 21.5469 20.454 21.4379C20.6422 21.342 20.7951 21.189 20.891 21.0009C21 20.787 21 20.5069 21 19.9469V16.1469C21 15.5868 21 15.3068 20.891 15.0929C20.7951 14.9047 20.6422 14.7517 20.454 14.6559C20.2401 14.5469 19.9601 14.5469 19.4 14.5469Z" stroke="black" stroke-width="1.5" stroke-linecap="round" stroke-linejoin="round"/>
<path d="M8.4 14.5469H4.6C4.03995 14.5469 3.75992 14.5469 3.54601 14.6559C3.35785 14.7517 3.20487 14.9047 3.10899 15.0929C3 15.3068 3 15.5868 3 16.1469V19.9469C3 20.5069 3 20.787 3.10899 21.0009C3.20487 21.189 3.35785 21.342 3.54601 21.4379C3.75992 21.5469 4.03995 21.5469 4.6 21.5469H8.4C8.96005 21.5469 9.24008 21.5469 9.45399 21.4379C9.64215 21.342 9.79513 21.189 9.89101 21.0009C10 20.787 10 20.5069 10 19.9469V16.1469C10 15.5868 10 15.3068 9.89101 15.0929C9.79513 14.9047 9.64215 14.7517 9.45399 14.6559C9.24008 14.5469 8.96005 14.5469 8.4 14.5469Z" stroke="black" stroke-width="1.5" stroke-linecap="round" stroke-linejoin="round"/>
</svg>
