<svg width="24" height="24" viewBox="0 0 24 24" fill="none" xmlns="http://www.w3.org/2000/svg">
<path d="M10.0318 22C9.59305 22 9.22303 21.6732 9.16888 21.2378L8.92988 19.3162C8.89034 18.9983 8.67484 18.7355 8.39452 18.5805C8.34771 18.5546 8.30161 18.5278 8.25622 18.5C8.2047 18.4685 8.15349 18.4364 8.10258 18.4036C7.84556 18.2384 7.52426 18.1977 7.24277 18.3166L5.4444 19.076C5.04001 19.2468 4.57176 19.0893 4.35265 18.709L2.38181 15.2878C2.16349 14.9088 2.26063 14.4266 2.60866 14.1618L4.29267 12.8801C4.45908 12.7535 4.53731 12.5466 4.53731 12.3375V11.6625C4.53731 11.4534 4.45908 11.2465 4.29267 11.1199L2.60866 9.83823C2.26063 9.57336 2.16349 9.0912 2.38181 8.71222L4.35265 5.29102C4.57176 4.91065 5.04001 4.75324 5.4444 4.924L7.24277 5.6834C7.52426 5.80226 7.8453 5.76104 8.10452 5.59929C8.15859 5.56555 8.2133 5.53245 8.26866 5.5C8.31643 5.47199 8.3642 5.44495 8.41198 5.41886C8.68554 5.26948 8.8894 5.00921 8.92787 4.6999L9.16888 2.76224C9.22303 2.32685 9.59305 2 10.0318 2H13.9682C14.407 2 14.777 2.32685 14.8311 2.76224L15.0701 4.68379C15.1097 5.00166 15.3252 5.26452 15.6055 5.41952C15.6523 5.4454 15.6984 5.47223 15.7438 5.5C15.7953 5.53151 15.8465 5.56364 15.8974 5.59637C16.1544 5.7616 16.4757 5.80226 16.7572 5.6834L18.5556 4.924C18.96 4.75324 19.4282 4.91065 19.6474 5.29102L21.6182 8.71222C21.8365 9.0912 21.7394 9.57336 21.3913 9.83823L19.7073 11.1199C19.5409 11.2465 19.4627 11.4534 19.4627 11.6625V12.3375C19.4627 12.5439 19.521 12.7572 19.6853 12.8823L21.3665 14.1618C21.7145 14.4266 21.8116 14.9088 21.5933 15.2878L19.6237 18.7069C19.404 19.0882 18.9343 19.2453 18.5295 19.0729L16.7582 18.3187C16.4763 18.1986 16.1541 18.2394 15.894 18.4016C15.8404 18.4351 15.7862 18.4678 15.7313 18.5C15.6836 18.528 15.6358 18.5551 15.588 18.5811C15.3145 18.7305 15.1106 18.9908 15.0721 19.3001L14.8311 21.2378C14.777 21.6732 14.407 22 13.9682 22H10.0318ZM12.0498 15.5C13.0116 15.5 13.8325 15.1583 14.5124 14.475C15.1924 13.7917 15.5323 12.9667 15.5323 12C15.5323 11.0333 15.1924 10.2083 14.5124 9.525C13.8325 8.84167 13.0116 8.5 12.0498 8.5C11.0713 8.5 10.2463 8.84167 9.57463 9.525C8.90299 10.2083 8.56716 11.0333 8.56716 12C8.56716 12.9667 8.90299 13.7917 9.57463 14.475C10.2463 15.1583 11.0713 15.5 12.0498 15.5Z" fill="black" stroke="black" stroke-width="1.5"/>
</svg>
