<svg width="24" height="24" viewBox="0 0 24 24" fill="none" xmlns="http://www.w3.org/2000/svg">
<path fill-rule="evenodd" clip-rule="evenodd" d="M12 22C17.5228 22 22 17.5228 22 12C22 6.47715 17.5228 2 12 2C6.47715 2 2 6.47715 2 12C2 17.5228 6.47715 22 12 22ZM8.25 8.971H9.884C9.884 8.287 10.093 7.736 10.511 7.318C10.929 6.9 11.423 6.691 11.993 6.691C12.5757 6.691 13.0887 6.881 13.532 7.261C13.9753 7.62833 14.197 8.10967 14.197 8.705C14.197 9.13567 14.0387 9.541 13.722 9.921C13.418 10.301 13.057 10.548 12.639 10.662C11.8157 10.9153 11.1823 11.27 10.739 11.726C10.3083 12.1693 10.093 12.8217 10.093 13.683V14.728H11.765L11.803 13.683C11.803 13.2777 11.9107 12.98 12.126 12.79C12.354 12.6 12.696 12.4353 13.152 12.296C13.9373 12.0553 14.5897 11.6183 15.109 10.985C15.6283 10.3517 15.888 9.59167 15.888 8.705C15.888 7.603 15.5017 6.71 14.729 6.026C13.969 5.342 13.057 5 11.993 5C10.9417 5 10.055 5.36733 9.333 6.102C8.611 6.824 8.25 7.78033 8.25 8.971ZM9.694 17.236C9.694 17.578 9.81433 17.863 10.055 18.091C10.3083 18.3063 10.606 18.414 10.948 18.414C11.29 18.414 11.5813 18.3063 11.822 18.091C12.0627 17.863 12.183 17.578 12.183 17.236C12.183 16.894 12.0627 16.609 11.822 16.381C11.5813 16.153 11.29 16.039 10.948 16.039C10.606 16.039 10.3083 16.153 10.055 16.381C9.81433 16.609 9.694 16.894 9.694 17.236Z" fill="black"/>
</svg>
