<svg width="24" height="24" viewBox="0 0 24 24" fill="none" xmlns="http://www.w3.org/2000/svg">
<path fill-rule="evenodd" clip-rule="evenodd" d="M3.49911 11.9999C3.49911 7.305 7.30509 3.49902 12 3.49902C16.6949 3.49902 20.5009 7.305 20.5009 11.9999C20.5009 16.6948 16.6949 20.5008 12 20.5008C7.30509 20.5008 3.49911 16.6948 3.49911 11.9999ZM12 1.99902C6.47666 1.99902 1.99911 6.47657 1.99911 11.9999C1.99911 17.5232 6.47666 22.0008 12 22.0008C17.5233 22.0008 22.0009 17.5232 22.0009 11.9999C22.0009 6.47657 17.5233 1.99902 12 1.99902ZM8.53091 9.19778H10.0425C10.0425 8.56502 10.2359 8.05529 10.6225 7.66861C11.0092 7.28192 11.4662 7.08858 11.9935 7.08858C12.5325 7.08858 13.0071 7.26434 13.4172 7.61588C13.8274 7.95569 14.0324 8.40097 14.0324 8.9517C14.0324 9.35011 13.8859 9.72508 13.593 10.0766C13.3118 10.4281 12.9778 10.6566 12.5911 10.7621C11.8295 10.9965 11.2436 11.3246 10.8335 11.7464C10.4351 12.1565 10.2359 12.76 10.2359 13.5568V14.5235H11.7826L11.8178 13.5568C11.8178 13.1818 11.9174 12.9065 12.1166 12.7307C12.3275 12.5549 12.6439 12.4026 13.0657 12.2737C13.7922 12.0511 14.3957 11.6468 14.8761 11.0609C15.3565 10.475 15.5967 9.77195 15.5967 8.9517C15.5967 7.93226 15.2393 7.10615 14.5246 6.47339C13.8215 5.84063 12.9778 5.52425 11.9935 5.52425C11.0209 5.52425 10.2007 5.86407 9.53278 6.5437C8.86487 7.21161 8.53091 8.09631 8.53091 9.19778ZM9.86674 16.8436C9.86674 17.16 9.97806 17.4237 10.2007 17.6346C10.4351 17.8338 10.7104 17.9334 11.0268 17.9334C11.3432 17.9334 11.6127 17.8338 11.8353 17.6346C12.058 17.4237 12.1693 17.16 12.1693 16.8436C12.1693 16.5273 12.058 16.2636 11.8353 16.0527C11.6127 15.8418 11.3432 15.7363 11.0268 15.7363C10.7104 15.7363 10.4351 15.8418 10.2007 16.0527C9.97806 16.2636 9.86674 16.5273 9.86674 16.8436Z" fill="black"/>
</svg>
