<svg width="24" height="24" viewBox="0 0 24 24" fill="none" xmlns="http://www.w3.org/2000/svg">
<g clip-path="url(#clip0_11470_84262)">
<path d="M21 3H3C2.73478 3 2.48043 3.10536 2.29289 3.29289C2.10536 3.48043 2 3.73478 2 4V18C2 18.2652 2.10536 18.5196 2.29289 18.7071C2.48043 18.8946 2.73478 19 3 19H12V17H4V5H20V13H22V4C22 3.73478 21.8946 3.48043 21.7071 3.29289C21.5196 3.10536 21.2652 3 21 3ZM16 8V10H14V9H13V15H11V9H10V10H8V8C8 7.73478 8.10536 7.48043 8.29289 7.29289C8.48043 7.10536 8.73478 7 9 7H15C15.2652 7 15.5196 7.10536 15.7071 7.29289C15.8946 7.48043 16 7.73478 16 8ZM24 18V20H21V23H19V20H16V18H19V15H21V18H24Z" fill="#65558F"/>
</g>
<defs>
<clipPath id="clip0_11470_84262">
<rect width="24" height="24" fill="white"/>
</clipPath>
</defs>
</svg>
