<svg width="10" height="10" viewBox="0 0 10 10" fill="none" xmlns="http://www.w3.org/2000/svg">
<path d="M4.50704 6.94815L7.15962 4.43225L6.49061 3.79771L4.50704 5.67907L3.50939 4.73282L2.84038 5.36737L4.50704 6.94815ZM5 9.375C4.41315 9.375 3.86346 9.26924 3.35094 9.05773C2.83842 8.84621 2.39241 8.56049 2.01291 8.20054C1.63341 7.8406 1.33216 7.41757 1.10915 6.93146C0.88615 6.44535 0.774648 5.92398 0.774648 5.36737C0.774648 4.81075 0.88615 4.28939 1.10915 3.80328C1.33216 3.31716 1.63341 2.89414 2.01291 2.53419C2.39241 2.17425 2.83842 1.88852 3.35094 1.677C3.86346 1.46549 4.41315 1.35973 5 1.35973C5.58685 1.35973 6.13654 1.46549 6.64906 1.677C7.16158 1.88852 7.60759 2.17425 7.98709 2.53419C8.36659 2.89414 8.66784 3.31716 8.89084 3.80328C9.11385 4.28939 9.22535 4.81075 9.22535 5.36737C9.22535 5.92398 9.11385 6.44535 8.89084 6.93146C8.66784 7.41757 8.36659 7.8406 7.98709 8.20054C7.60759 8.56049 7.16158 8.84621 6.64906 9.05773C6.13654 9.26924 5.58685 9.375 5 9.375ZM1.99531 0.625L2.65258 1.24841L0.657277 3.1409L0 2.51749L1.99531 0.625ZM8.00469 0.625L10 2.51749L9.34272 3.1409L7.34742 1.24841L8.00469 0.625Z" fill="#595959"/>
</svg>
