<svg width="24" height="24" viewBox="0 0 24 24" fill="none" xmlns="http://www.w3.org/2000/svg">
<path fill-rule="evenodd" clip-rule="evenodd" d="M2.75 4C2.75 3.30964 3.30964 2.75 4 2.75C4.69036 2.75 5.25 3.30964 5.25 4C5.25 4.69036 4.69036 5.25 4 5.25C3.30964 5.25 2.75 4.69036 2.75 4ZM4 1.25C2.48122 1.25 1.25 2.48122 1.25 4C1.25 5.51878 2.48122 6.75 4 6.75C5.51878 6.75 6.75 5.51878 6.75 4C6.75 2.48122 5.51878 1.25 4 1.25ZM9 3.25C8.58579 3.25 8.25 3.58579 8.25 4C8.25 4.41421 8.58579 4.75 9 4.75H22C22.4142 4.75 22.75 4.41421 22.75 4C22.75 3.58579 22.4142 3.25 22 3.25H9ZM9 11.25C8.58579 11.25 8.25 11.5858 8.25 12C8.25 12.4142 8.58579 12.75 9 12.75H22C22.4142 12.75 22.75 12.4142 22.75 12C22.75 11.5858 22.4142 11.25 22 11.25H9ZM8.25 20C8.25 19.5858 8.58579 19.25 9 19.25H22C22.4142 19.25 22.75 19.5858 22.75 20C22.75 20.4142 22.4142 20.75 22 20.75H9C8.58579 20.75 8.25 20.4142 8.25 20ZM4 10.75C3.30964 10.75 2.75 11.3096 2.75 12C2.75 12.6904 3.30964 13.25 4 13.25C4.69036 13.25 5.25 12.6904 5.25 12C5.25 11.3096 4.69036 10.75 4 10.75ZM1.25 12C1.25 10.4812 2.48122 9.25 4 9.25C5.51878 9.25 6.75 10.4812 6.75 12C6.75 13.5188 5.51878 14.75 4 14.75C2.48122 14.75 1.25 13.5188 1.25 12ZM2.75 20C2.75 19.3096 3.30964 18.75 4 18.75C4.69036 18.75 5.25 19.3096 5.25 20C5.25 20.6904 4.69036 21.25 4 21.25C3.30964 21.25 2.75 20.6904 2.75 20ZM4 17.25C2.48122 17.25 1.25 18.4812 1.25 20C1.25 21.5188 2.48122 22.75 4 22.75C5.51878 22.75 6.75 21.5188 6.75 20C6.75 18.4812 5.51878 17.25 4 17.25Z" fill="black"/>
</svg>
