<svg width="24" height="24" viewBox="0 0 24 24" fill="none" xmlns="http://www.w3.org/2000/svg">
<path d="M11.5 4C10.5717 4 9.6815 4.36875 9.02513 5.02513C8.36875 5.6815 8 6.57174 8 7.5C8 8.42826 8.36875 9.3185 9.02513 9.97487C9.6815 10.6313 10.5717 11 11.5 11C12.4283 11 13.3185 10.6313 13.9749 9.97487C14.6313 9.3185 15 8.42826 15 7.5C15 6.57174 14.6313 5.6815 13.9749 5.02513C13.3185 4.36875 12.4283 4 11.5 4ZM6 7.5C6 6.04131 6.57946 4.64236 7.61091 3.61091C8.64236 2.57946 10.0413 2 11.5 2C12.9587 2 14.3576 2.57946 15.3891 3.61091C16.4205 4.64236 17 6.04131 17 7.5C17 8.95869 16.4205 10.3576 15.3891 11.3891C14.3576 12.4205 12.9587 13 11.5 13C10.0413 13 8.64236 12.4205 7.61091 11.3891C6.57946 10.3576 6 8.95869 6 7.5ZM18 14C17.07 14 16.5 14.656 16.5 15.249V16.249H14.5V15.249C14.5 13.358 16.17 12 18 12C19.83 12 21.5 13.358 21.5 15.249C21.4975 15.6826 21.4049 16.1109 21.2281 16.5069C21.0513 16.9028 20.7942 17.2577 20.473 17.549L19 18.939V19.622H17V18.076L19.112 16.083C19.368 15.848 19.5 15.553 19.5 15.249C19.5 14.656 18.93 14 18 14ZM8 16C6.93913 16 5.92172 16.4214 5.17157 17.1716C4.42143 17.9217 4 18.9391 4 20H12.8V22H2V20C2 18.4087 2.63214 16.8826 3.75736 15.7574C4.88258 14.6321 6.4087 14 8 14H12.75V16H8ZM17 20.996H19.003V23H16.999L17 20.996Z" fill="white"/>
</svg>
