<svg width="24" height="24" viewBox="0 0 24 24" fill="none" xmlns="http://www.w3.org/2000/svg">
<path fill-rule="evenodd" clip-rule="evenodd" d="M12 21C16.9706 21 21 16.9706 21 12C21 7.02944 16.9706 3 12 3C7.02944 3 3 7.02944 3 12C3 16.9706 7.02944 21 12 21ZM12 22C17.5228 22 22 17.5228 22 12C22 6.47715 17.5228 2 12 2C6.47715 2 2 6.47715 2 12C2 17.5228 6.47715 22 12 22Z" fill="#B2B2B2"/>
<path d="M15.6136 14.0432L14.9091 13.3275C15.2424 13.012 15.5038 12.6387 15.6932 12.2078C15.8826 11.7768 15.9773 11.3189 15.9773 10.8341C15.9773 10.3493 15.8826 9.89523 15.6932 9.47197C15.5038 9.0487 15.2424 8.67931 14.9091 8.36379L15.6136 7.625C16.0379 8.03287 16.375 8.51385 16.625 9.06794C16.875 9.62203 17 10.2108 17 10.8341C17 11.4575 16.875 12.0462 16.625 12.6003C16.375 13.1544 16.0379 13.6353 15.6136 14.0432ZM14.1591 12.5656L13.4318 11.8268C13.5682 11.696 13.678 11.5479 13.7614 11.3824C13.8447 11.217 13.8864 11.0342 13.8864 10.8341C13.8864 10.634 13.8447 10.4512 13.7614 10.2858C13.678 10.1203 13.5682 9.97219 13.4318 9.84136L14.1591 9.10257C14.4015 9.32575 14.5909 9.58548 14.7273 9.88176C14.8636 10.178 14.9318 10.4955 14.9318 10.8341C14.9318 11.1727 14.8636 11.4902 14.7273 11.7864C14.5909 12.0827 14.4015 12.3425 14.1591 12.5656ZM10.6364 12.6811C10.1364 12.6811 9.70833 12.5002 9.35227 12.1385C8.99621 11.7768 8.81818 11.342 8.81818 10.8341C8.81818 10.3262 8.99621 9.89138 9.35227 9.52968C9.70833 9.16799 10.1364 8.98714 10.6364 8.98714C11.1364 8.98714 11.5644 9.16799 11.9205 9.52968C12.2765 9.89138 12.4545 10.3262 12.4545 10.8341C12.4545 11.342 12.2765 11.7768 11.9205 12.1385C11.5644 12.5002 11.1364 12.6811 10.6364 12.6811ZM7 16.375V15.0821C7 14.8282 7.06439 14.5896 7.19318 14.3664C7.32197 14.1432 7.5 13.9739 7.72727 13.8585C8.11364 13.6584 8.54924 13.4891 9.03409 13.3506C9.51894 13.2121 10.053 13.1428 10.6364 13.1428C11.2197 13.1428 11.7538 13.2121 12.2386 13.3506C12.7235 13.4891 13.1591 13.6584 13.5455 13.8585C13.7727 13.9739 13.9508 14.1432 14.0795 14.3664C14.2083 14.5896 14.2727 14.8282 14.2727 15.0821V16.375H7Z" fill="#595959"/>
</svg>
